<svg xmlns="http://www.w3.org/2000/svg" viewBox="0 0 612 792" xml:space="preserve"><path d="M301.015 433.458c-11.036-10.17-21.786-20.055-32.525-29.952a86359.413 86359.413 0 0 1-56.255-51.893c-22.742-21.003-45.48-42.012-68.214-63.023a38034.581 38034.581 0 0 0-74.354-68.428c-2.063-1.885-2.074-3.011-.45-5.144a22904.773 22904.773 0 0 0 57.902-76.796c7.444-9.886 14.935-19.748 22.26-29.716a6.767 6.767 0 0 1 6.128-3.141c97.194.079 194.35.079 291.466 0a6.197 6.197 0 0 1 5.583 2.727 39344.45 39344.45 0 0 0 67.812 90.272c4.314 5.737 8.593 11.498 13.038 17.152 1.387 1.766 1.186 2.833-.451 4.326a60653.244 60653.244 0 0 0-90.758 83.517A93369.494 93369.494 0 0 0 337.7 399.95a19116.577 19116.577 0 0 1-34.718 32.002c-.544.452-1.113.855-1.967 1.506zm-.462-33.484h1.185l88.898-173.967H212.473l88.08 173.967zm-32.833-21.988.853-.794c-.616-1.327-1.185-2.678-1.837-3.983-4.741-9.364-9.589-18.716-14.33-28.091a76011.778 76011.778 0 0 1-58.768-116.267 5.264 5.264 0 0 0-5.476-3.295c-26.765.083-53.517 0-80.281.06-1.186 0-2.489.201-4.86.415L267.72 377.986zm66.282-1.055.9.735 164.213-151.482a38.871 38.871 0 0 0-3.864-.498c-27.018 0-54.034-.02-81.052-.059a4.562 4.562 0 0 0-4.574 2.94 23690.354 23690.354 0 0 1-29.633 58.21 25852.235 25852.235 0 0 0-35.429 69.459c-3.58 6.898-7.064 13.821-10.562 20.743v-.048zm45.492-169.629-78.313-79.415-78.526 79.415h156.839zm22.295-6.222 30.582-77.401H325.385l76.404 77.401zm-200.162-1.186 75.587-76.345H176.107l25.52 76.345zm-16.725 7.396-26.8-80.126-60.32 80.126h87.12zm234.051.012h85.46l-56.088-74.484-29.372 74.484z"></path><path d="M564.733 288.499c7.858 15.999 14.595 32.402 18.896 49.614 3.761 15.089 6.175 30.527 8.981 45.852.505 2.807 0 5.805-.112 8.701-3.154-.674-6.5-.865-9.408-2.111-5.345-2.301-10.352-5.389-15.64-7.859-5.984-2.785-13.147 1.954-13.54 8.499-.326 5.333 1.526 9.903 3.997 14.405 4.21 7.668 4.108 7.858-1.763 14.202-1.74 1.864-3.29 3.896-5.311 6.321-1.348-1.808-2.964-3.256-3.66-5.053-2.471-6.31-7.691-8.824-13.563-10.744-6.736-2.246-16.033 4.289-14.405 11.07 1.785 7.455 5.188 14.595 8.421 21.601a5.613 5.613 0 0 0 8.174 2.448c3.503-2.246 6.073-1.19 9.104.314a46.926 46.926 0 0 0 4.952 1.684c2.48.898 3.985 2.178 2.593 5.198a61.428 61.428 0 0 0-3.368 8.769c-3.121 10.823-10.374 16.841-21.242 18.997a4.98 4.98 0 0 0-2.885 1.976 68.703 68.703 0 0 0-5.165 8.869c-4.76 10.341-8.285 21.029-9.229 32.56a22.28 22.28 0 0 1-3.021 8.746c-2.672 4.749-6.41 8.981-8.757 13.843-4.985 10.441-9.678 21.052-13.934 31.808-8.869 22.454-24.991 37.769-46.031 48.502-6.231 3.177-12.541 6.096-19.648 6.736-3.885.348-8.128-.472-9.588-3.762-2.604-5.86-5.276-12.35-5.378-18.559-.258-16.246.55-32.559 1.505-48.749a292.94 292.94 0 0 1 7.084-49.714 31.05 31.05 0 0 0-2.908-22.23c-2.357-4.491-4.39-9.105-6.894-13.473a217.074 217.074 0 0 0-11.8-19.086 9.687 9.687 0 0 0-7.331-3.503c-8.981.763-17.84 2.515-26.777 3.648-11.822 1.505-23.645 1.932-35.512-.078-3.772-.641-5.21-2.796-6.501-5.839a130.799 130.799 0 0 0-5.827-12.17c-.505-.909-2.638-1.853-3.48-1.493a66.343 66.343 0 0 0-7.713 4.49c2.931 6.209 5.49 12.261 8.578 18.043 3.087 5.782 8.724 6.871 14.596 8.442 11.081 2.964 22.129.932 33.12.854 8.858-.067 17.683-2.616 26.563-3.66a6.13 6.13 0 0 1 4.839 2.604c4.593 8.062 8.701 16.393 13.159 24.532 4.457 8.14 4.311 16.089.83 24.453a37.525 37.525 0 0 0-2.391 9.947c-1 8.544-1.942 17.099-2.426 25.677-1.033 18.469-1.942 36.96-2.537 55.451a48.445 48.445 0 0 0 7.208 26.497c3.548 5.961 13.933 10.362 20.209 9.284a76.221 76.221 0 0 0 27.552-9.857c9.992-6.163 20.209-11.99 28.271-20.838 12.743-14.045 20.063-31.133 27.17-48.355 2.492-6.04 5.165-12.024 8.241-17.784 2.178-4.075 5.423-7.578 7.69-11.62a22.534 22.534 0 0 0 2.684-8.409c1.122-10.554 3.132-20.86 7.96-30.381 1.886-3.717 3.885-7.118 8.757-8.735 9.566-3.188 16.841-9.375 19.828-19.704a74.882 74.882 0 0 1 5.153-12.417c3.693-7.398 3.154-11.07-2.863-16.729-.685-.651-1.572-2.066-1.303-2.594a84.397 84.397 0 0 1 5.737-10.104c2.077-3.031 4.771-5.613 6.95-8.601a7.857 7.857 0 0 0 .572-8.869c-2.245-4.491-4.053-9.341-6.276-14.596.821.18 1.626.432 2.403.752 7.241 4.177 14.685 7.859 23.206 8.556 3.245.28 3.021 2.694 2.92 4.873-.326 7.511-.651 15.021-1.123 22.521-.584 8.981-.438 18.166-2.179 26.945-2.952 14.843-7.027 29.461-10.879 44.112-3.963 15.123-10.688 29.191-17.672 43.057a279.488 279.488 0 0 1-40.822 59.887c-15.942 18.042-33.682 34.198-53.745 47.356a415.46 415.46 0 0 1-42.843 23.971c-10.801 5.366-22.298 9.476-33.683 13.473-7.264 2.503-14.966 3.851-22.533 5.423-10.644 2.245-21.332 5.321-32.042 5.883-13.687.719-27.339 3.11-41.238 1.044-13.338-1.976-26.946-2.369-40.306-3.985a125.21 125.21 0 0 1-19.973-4.3 568.277 568.277 0 0 1-31.65-10.251 178.602 178.602 0 0 1-21.399-8.981c-10.408-5.322-20.591-11.093-30.639-17.066-6.557-3.906-12.766-8.409-18.94-12.911-1.123-.797-2.189-3.581-1.695-4.222 3.492-4.49 7.376-8.701 11.228-12.934 1.987-2.245 4.637-4.02 6.051-6.534 3.042-5.423.337-10.609-1.92-15.516-1.785-3.885-2.807-7.747 0-11.228a37.01 37.01 0 0 1 8.735-7.972c7.534-4.671 15.471-8.689 23.151-13.147 8.061-4.682 8.78-12.147 2.133-18.536a6.523 6.523 0 0 1-1.863-4.232c0-14.663 4.098-28.293 10.958-41.148 4.491-8.397 3.301-17.492-3.907-23.802-8.847-7.758-19.906-10.924-30.785-14.304-4.21-1.302-8.746-1.526-13.113-2.391-2.627-.517-3.671-1.842-2.347-4.693 3.188-6.894 1.459-13.473-2.346-19.457-6.546-10.385-16.078-17.458-26.946-22.746a18.564 18.564 0 0 1-8.982-9.679c-4.378-9.655-9.869-18.502-17.806-25.699-5.288-4.805-12.822-6.736-18.121-3.918-7.376 3.907-12.877 9.61-15.089 17.964-1.123 4.356-1.897 8.858-3.492 13.046-2.156 5.681-5.434 10.969-7.298 16.729-1.796 5.535-3.604 11.52-3.312 17.2a216.061 216.061 0 0 0 4.244 31.279c1.583 7.859 4.816 15.235 12.788 19.087a21.326 21.326 0 0 1 10.352 10.688c1.662 3.581 3.368 7.141 4.715 10.856 1.853 5.243 3.469 10.587 4.929 15.954 2.829 10.464.673 20.983-.202 31.437-.303 3.705-1.976 7.309-3.368 12.024-1.617-2.122-2.335-2.919-2.897-3.817-3.94-6.759-8.106-13.327-12.002-20.063a258.982 258.982 0 0 1-22.915-52.095c-4.289-13.641-8.634-27.35-9.959-41.743-.943-10.194-2.133-20.366-2.953-30.561a6.66 6.66 0 0 1 1.875-4.592c8.375-8.398 16.033-17.346 19.884-28.765 2.357-6.994 3.424-14.258-.146-21.41-4.356-8.724-6.736-17.627-2.111-27.125 1.65-3.436 2.436-7.365 4.491-10.498 1.853-2.84 4.491-5.872 7.511-7.062 3.772-1.493 8.252-1.123 12.417-1.707 9.476-1.257 17.661-5.614 25.082-11.294 6.041-4.66 10.621-10.711 10.565-18.604a17.83 17.83 0 0 1 3.66-11.755c.55-.696 1.123-1.392 1.673-2.077l-8.679-8.027c-.359.505-.73 1.01-1.123 1.527-3.368 5.019-7.051 11.104-7.006 16.684.067 6.86-2.998 10.52-7.388 13.888-7.399 5.681-15.718 9.24-25.306 9.094-9.588-.146-16.527 4.917-21.119 13.147-1.83 3.268-3.368 6.737-4.974 10.105l-1.123-.348a13.236 13.236 0 0 1 .303-3.144c4.098-11.856 7.466-24.06 12.62-35.445 6.568-14.517 14.281-28.551 22.14-42.428 1.65-2.919 3.514-5.715 5.457-8.466l-8.432-7.792-4.57-4.21a293.248 293.248 0 0 0-43.023 91.357c-17.484 63.494-14.91 126.281 7.725 188.36C59.323 631.087 171.72 728.652 324.781 720.49c68.588-3.66 129.462-29.27 181.389-74.369 55.014-47.783 89.133-108.097 101.371-179.896 10.104-59.325 2.986-117.179-20.928-172.586a292.31 292.31 0 0 0-29.191-52.274l-13.079 12.058a287.065 287.065 0 0 1 20.39 35.076zm-26.946 143.664c-.965.214-2.728.27-2.975-.213-1.595-3.121-2.874-6.4-4.491-10.104 4.165.595 8.982 5.669 8.813 8.645a2.244 2.244 0 0 1-1.347 1.672zm-514.49-71.911c.887 2.874 1.953 4.693 1.908 6.478-.146 5.49 2.773 9.88 4.491 14.741.954 2.695.831 5.917.595 8.858-.741 9.072-6.837 15.337-12.271 22.151.977-17.176.258-34.354 5.277-52.228zm99.417 272.823c-.674.831-1.381 1.617-2.246 2.594a277.082 277.082 0 0 1-40.631-41.9 4.87 4.87 0 0 1-.842-5.815c5.996-14.359 8.915-29.606 6.961-44.909s-6.141-30.662-15.359-43.618c-3.121-4.39-7.926-7.78-12.474-10.879a15.043 15.043 0 0 1-6.152-9.274 120.278 120.278 0 0 1-3.761-34.883c.416-10.452 5.423-19.03 10.318-27.742a8.036 8.036 0 0 0 1.313-4.009c-.404-7.186 2.807-12.619 7.859-17.2 2.526-2.245 5.075-1.403 7.444.404 5.917 4.491 9.768 10.621 13.091 17.145 3.862 7.566 7.511 15.179 15.393 19.748a146.416 146.416 0 0 1 17.627 11.778 25.437 25.437 0 0 1 7.073 9.363c1.123 2.414.572 5.838-.056 8.622-1.74 7.612-.865 12.418 6.152 16.65 5.445 3.278 11.228 2.717 16.841 4.165 9.285 2.414 18.143 5.345 25.901 11.127 4.098 3.054 5.063 5.838 2.537 10.205a87.664 87.664 0 0 0-10.104 25.823c-2.01 9.464-4.188 19.086-.943 28.775.674 2.021 1.718 3.918 2.583 5.85-11.227 6.22-23.364 10.8-32.009 20.726-6.837 7.858-7.668 13.473-4.491 22.454.135.382.438.707.595 1.123 3.099 7.241 2.807 6.916-3.065 12.058-3.671 3.29-6.377 7.747-9.543 11.654l-.012-.035z"></path><path d="M488.646 323.168c.27 1.976-.213 4.064-.303 6.097-.112 2.548-1.123 3.783-3.907 3.222-3.593-.719-7.32-2.01-10.812-1.572a7.073 7.073 0 0 1-7.343-2.953l-1.123-1.415-8.511 7.859c4.346 5.131 8.758 10.318 16.92 7.803.449-.135 1.044.247 1.583.303 4.491.393 9.094 1.291 13.585.999 5.704-.37 8.982-4.435 10.498-9.622a29.988 29.988 0 0 0 .954-8.982c-.247-10.015-3.436-17.38-9.824-21.691l-8.981 8.263c4.389 1.529 6.365 5.11 7.264 11.689z"></path></svg>