<svg id="Layer_1" data-name="Layer 1" xmlns="http://www.w3.org/2000/svg" viewBox="0 0 207.11 64.63"><defs><style>.cls-1{fill:#2c3c5b;}.cls-2{fill:none;stroke:#2c3c5b;stroke-miterlimit:10;stroke-width:8px;}.cls-3{fill:#2c3b5b;}</style></defs><path class="cls-1" d="M119.32,104.23c0,6.24,0,1.49,0,7.73,0,2.9,1.77,4.94,4.34,5.12a4.76,4.76,0,0,0,5.26-4.94c.06-3.61,0,2.77,0-.85,0-9,0-6,0-15,0-2.89-1.77-5-4.31-5.19a4.73,4.73,0,0,0-5.3,5c0,6,0,.92,0,6.89Z" transform="translate(-8.44 -71.75)"></path><path class="cls-1" d="M92.93,93.28v21.63a8.9,8.9,0,0,0,1-.27c6.44-2.33,12.87-4.68,19.32-7,.87-.31,1.29-.69,1.22-1.69-.1-1.36,0-2.73-.06-4.09a1.49,1.49,0,0,0-.69-1.14c-6.81-2.52-13.65-5-20.49-7.45A1.32,1.32,0,0,0,92.93,93.28Z" transform="translate(-8.44 -71.75)"></path><path class="cls-1" d="M114.49,95.66c0-2.74,0-5.31,0-7.88a1.43,1.43,0,0,0-.65-1q-10.22-6.33-20.47-12.6c-.07,0-.18,0-.49-.07v2.18c0,3.52,0,7,0,10.55a1.72,1.72,0,0,0,.79,1.34c6.67,2.49,13.36,4.91,20,7.34A4.67,4.67,0,0,0,114.49,95.66Z" transform="translate(-8.44 -71.75)"></path><path class="cls-1" d="M92.85,134.11c.49-.25.83-.38,1.13-.57,6.47-4,12.93-8,19.42-11.91a2,2,0,0,0,1.12-2c-.07-2.34,0-4.67,0-7.17-.51.13-.86.19-1.19.31-6.43,2.33-12.85,4.68-19.29,7a1.5,1.5,0,0,0-1.18,1.71C92.88,125.61,92.85,129.77,92.85,134.11Z" transform="translate(-8.44 -71.75)"></path><path class="cls-1" d="M81.52,104.07c2.15,2.58,4.18,5,6.43,7.69V96.38Z" transform="translate(-8.44 -71.75)"></path><path class="cls-1" d="M82,124.86l5.87,6.85v-9.45Z" transform="translate(-8.44 -71.75)"></path><path class="cls-1" d="M88,76.39,82,83.26,88,85.9Z" transform="translate(-8.44 -71.75)"></path><path class="cls-1" d="M80.85,88v9.32c2-2.38,3.77-4.51,5.67-6.8Z" transform="translate(-8.44 -71.75)"></path><path class="cls-1" d="M80.91,120.08l5.61-2.48-5.61-6.74Z" transform="translate(-8.44 -71.75)"></path><path class="cls-1" d="M169.7,107.11h42.8a3,3,0,0,0,3.05-3h0a3,3,0,0,0-3.05-3H169.7Z" transform="translate(-8.44 -71.75)"></path><rect class="cls-1" x="125.38" y="29.27" width="21.5" height="6.09"></rect><path class="cls-2" d="M185.18,87.09a11.35,11.35,0,0,0-11.35-11.34h0a11.35,11.35,0,0,0-11.35,11.34V121a11.35,11.35,0,0,0,11.35,11.35h0A11.35,11.35,0,0,0,185.18,121" transform="translate(-8.44 -71.75)"></path><circle class="cls-1" cx="176.73" cy="15.34" r="3.99"></circle><circle class="cls-1" cx="176.73" cy="49.48" r="4.01"></circle><polyline class="cls-3" points="29.34 49.38 20.97 45.88 23.58 51.91 28.32 49.83"></polyline><path class="cls-3" d="M39,135.28,32,126.59l-3,6.85a31.47,31.47,0,0,0,22.21-.23c-.75-1.67-3.33-7.67-3.33-7.67Z" transform="translate(-8.44 -71.75)"></path><polygon class="cls-3" points="41.44 45.8 33.4 49.34 38.89 51.65 41.44 45.8"></polygon><polygon class="cls-3" points="37.94 52.99 31.37 50.24 24.36 53.33 30.64 61.06 37.94 52.99"></polygon><polygon class="cls-3" points="47.99 34.81 44.56 42.67 50.28 40.15 47.99 34.81"></polygon><polygon class="cls-3" points="48.88 32.8 51.65 39.25 60.09 32.29 52.11 25.38 48.88 32.8"></polygon><polygon class="cls-3" points="42.05 20.99 31.77 16.4 19.5 21.41 14.99 32.06 20.04 43.74 31.36 48.49 42.39 43.63 47.12 32.79 42.05 20.99"></polygon><polygon class="cls-3" points="14.12 34.11 11.54 40.18 17.9 42.84 14.12 34.11"></polygon><polygon class="cls-3" points="10.38 25.48 2.46 32.57 10.18 39.29 13.24 32.07 10.38 25.48"></polygon><polygon class="cls-3" points="50.75 24.48 44.18 21.86 48 30.77 50.75 24.48"></polygon><polygon class="cls-3" points="38.84 13.51 41.12 18.8 33.84 15.55 38.84 13.51"></polygon><polygon class="cls-3" points="17.39 22.28 11.75 24.58 14.1 30.02 17.39 22.28"></polygon><polygon class="cls-3" points="29.74 15.49 23.24 12.59 20.39 19.31 29.74 15.49"></polygon><polygon class="cls-3" points="37.94 12.14 31.1 3.58 24.14 11.23 31.8 14.65 37.94 12.14"></polygon><path class="cls-3" d="M69,115.25l-7.65-3.17,9.7-8A31.86,31.86,0,0,1,69,115.25Z" transform="translate(-8.44 -71.75)"></path><path class="cls-3" d="M71,104.06l-9.12-7.9,7.17-3A29.8,29.8,0,0,1,71,104.06Z" transform="translate(-8.44 -71.75)"></path><path class="cls-3" d="M47.58,82.81l3.56-7.89a30.14,30.14,0,0,0-11.47-2.15,28.11,28.11,0,0,0-10.9,2c.53,1.43,2.72,7,2.72,7l8.13-8.93Z" transform="translate(-8.44 -71.75)"></path><path class="cls-3" d="M17.56,96.18l-9.09,8.15,9,7.86-7,2.9a32.12,32.12,0,0,1-2-10.53,30.29,30.29,0,0,1,1.85-11.1C12.26,94.21,17.56,96.18,17.56,96.18Z" transform="translate(-8.44 -71.75)"></path><path class="cls-3" d="M22.09,84.09l8,0-3.33,7.87-6.9,2.81-.61-7A5.6,5.6,0,0,0,22.09,84.09Z" transform="translate(-8.44 -71.75)"></path><path class="cls-3" d="M20.84,79.12a30.66,30.66,0,0,1,6.43-3.77L30,82.44l-7.8,0A5.54,5.54,0,0,0,20.84,79.12Z" transform="translate(-8.44 -71.75)"></path><path class="cls-3" d="M13.31,87.3a5.58,5.58,0,0,0,3.34,1.11,5.47,5.47,0,0,0,1-.1l.57,6.4L10.87,92A24.8,24.8,0,0,1,13.31,87.3Z" transform="translate(-8.44 -71.75)"></path><circle class="cls-3" cx="8.2" cy="11.06" r="4.23"></circle><path class="cls-3" d="M57.46,84.06a5.56,5.56,0,0,0,2.46,3.47l-.47,7.08-7.73-3.09-2.84-6.63Z" transform="translate(-8.44 -71.75)"></path><path class="cls-3" d="M57.33,82.46l-8.18.79S52,77,52.62,75.54a32.28,32.28,0,0,1,6.05,3.63A5.55,5.55,0,0,0,57.33,82.46Z" transform="translate(-8.44 -71.75)"></path><path class="cls-3" d="M62.91,88.41a5.57,5.57,0,0,0,3.28-1.07,30.67,30.67,0,0,1,2.28,4.32l-7.42,3.11.43-6.55A5.67,5.67,0,0,0,62.91,88.41Z" transform="translate(-8.44 -71.75)"></path><circle class="cls-3" cx="54.47" cy="11.06" r="4.23"></circle><path class="cls-3" d="M18.72,120.26l.84-6.76,7.7,3.22,3.1,7.14-8.46-.3A5.6,5.6,0,0,0,18.72,120.26Z" transform="translate(-8.44 -71.75)"></path><path class="cls-3" d="M16.65,119.86a5.63,5.63,0,0,0-3.28,1.06,31.47,31.47,0,0,1-2.32-4.34l6.86-2.83-.77,6.14A4,4,0,0,0,16.65,119.86Z" transform="translate(-8.44 -71.75)"></path><path class="cls-3" d="M22.24,125.45c0-.09,0-.19,0-.28l8.46.3-3.26,7.37A30.19,30.19,0,0,1,21,129,5.6,5.6,0,0,0,22.24,125.45Z" transform="translate(-8.44 -71.75)"></path><circle class="cls-3" cx="8.2" cy="53.71" r="4.23"></circle><path class="cls-3" d="M57.33,125.2l-8.43-1.38,3.16-7.23,6.92-3v7.94A5.59,5.59,0,0,0,57.33,125.2Z" transform="translate(-8.44 -71.75)"></path><path class="cls-3" d="M62.91,119.86a5.67,5.67,0,0,0-2.33.51v-6.84s5.59,2.29,7.76,3.21a25.9,25.9,0,0,1-2.23,4.14A5.55,5.55,0,0,0,62.91,119.86Z" transform="translate(-8.44 -71.75)"></path><path class="cls-3" d="M57.5,126.85A5.65,5.65,0,0,0,58.6,129a31.92,31.92,0,0,1-6,3.57l-3-7Z" transform="translate(-8.44 -71.75)"></path><circle class="cls-3" cx="54.47" cy="53.71" r="4.23"></circle></svg>